<svg xmlns="http://www.w3.org/2000/svg" viewBox="-20 -20 940 370" width="940" height="370" font-family="'Segoe UI', Tahoma, Arial, sans-serif">
  <rect x="0" y="0" width="900" height="330" rx="8" fill="#FFFFFF" stroke="#B4B4B4" stroke-width="1"/>
  <rect x="0" y="0" width="900" height="32" rx="8" fill="#F3F3F3"/>
  <rect x="0" y="20" width="900" height="12" rx="0" fill="#F3F3F3"/>
  <line x1="900" y1="32" x2="0" y2="32" stroke="#DCDCDC"/>
  <rect x="874" y="9" width="14" height="14" rx="3" fill="#4169E1"/>
  <text x="866" y="21" font-size="12" font-weight="normal" fill="#1B1B1B" text-anchor="start" direction="rtl">ByteBridge</text>
  <text x="22" y="21" font-size="12" font-weight="normal" fill="#444444" text-anchor="middle" direction="rtl">✕</text>
  <text x="66" y="21" font-size="12" font-weight="normal" fill="#444444" text-anchor="middle" direction="rtl">☐</text>
  <text x="110" y="21" font-size="12" font-weight="normal" fill="#444444" text-anchor="middle" direction="rtl">—</text>
  <rect x="850" y="34" width="44" height="24" rx="3" fill="#E5E5E5"/>
  <text x="872.0" y="51" font-size="13" font-weight="normal" fill="#1B1B1B" text-anchor="middle" direction="rtl">ملف</text>
  <text x="822.0" y="51" font-size="13" font-weight="normal" fill="#1B1B1B" text-anchor="middle" direction="rtl">تعديل</text>
  <text x="752.0" y="51" font-size="13" font-weight="normal" fill="#1B1B1B" text-anchor="middle" direction="rtl">سيرفر ويب</text>
  <text x="650.0" y="51" font-size="13" font-weight="normal" fill="#1B1B1B" text-anchor="middle" direction="rtl">نفق Cloudflare</text>
  <text x="558.5" y="51" font-size="13" font-weight="normal" fill="#1B1B1B" text-anchor="middle" direction="rtl">خيارات</text>
  <text x="492.0" y="51" font-size="13" font-weight="normal" fill="#1B1B1B" text-anchor="middle" direction="rtl">تعليمات</text>
  <line x1="900" y1="60" x2="0" y2="60" stroke="#DCDCDC"/>
  <text x="880" y="86" font-size="13" font-weight="normal" fill="#008000" text-anchor="start" direction="rtl">● يعمل — http://127.0.0.1:8080    ·    الخدمة: تعمل</text>
  <rect x="20" y="70" width="110" height="28" rx="4" fill="#FBFBFB" stroke="#D0D0D0" stroke-width="1"/>
  <text x="75.0" y="89.0" font-size="13" font-weight="normal" fill="#1B1B1B" text-anchor="middle" direction="rtl">إيقاف الخدمة</text>
  <line x1="900" y1="108" x2="0" y2="108" stroke="#DCDCDC"/>
  <text x="450" y="190" font-size="16" font-weight="normal" fill="#808080" text-anchor="middle" direction="rtl">لا توجد قواعد بيانات مُعدّة.</text>
  <text x="450" y="222" font-size="16" font-weight="normal" fill="#808080" text-anchor="middle" direction="rtl">استخدم ملف ← قاعدة بيانات جديدة... لإنشاء اتصال.</text>
  <rect x="674" y="58" width="220" height="74" rx="6" fill="#FFFFFF" stroke="#C8C8C8" stroke-width="1"/>
  <rect x="678" y="62" width="212" height="28" rx="4" fill="#E8EFFA"/>
  <text x="878" y="81" font-size="13" font-weight="normal" fill="#1B1B1B" text-anchor="start" direction="rtl">قاعدة بيانات جديدة...</text>
  <line x1="886" y1="96" x2="682" y2="96" stroke="#DCDCDC"/>
  <text x="878" y="118" font-size="13" font-weight="normal" fill="#1B1B1B" text-anchor="start" direction="rtl">خروج</text>
  <rect x="846" y="30" width="52" height="32" rx="6" fill="none" stroke="#E5484D" stroke-width="3"/>
  <circle cx="898" cy="30" r="14" fill="#E5484D"/><text x="898" y="35" font-size="15" font-weight="bold" fill="#FFFFFF" text-anchor="middle">1</text>
  <rect x="674" y="58" width="220" height="36" rx="6" fill="none" stroke="#E5484D" stroke-width="3"/>
  <circle cx="674" cy="58" r="14" fill="#E5484D"/><text x="674" y="63" font-size="15" font-weight="bold" fill="#FFFFFF" text-anchor="middle">2</text>
</svg>
